<svg width="21" height="21" fill="none" xmlns="http://www.w3.org/2000/svg"><path d="M10.5 21C16.299 21 21 16.299 21 10.5S16.299 0 10.5 0 0 4.701 0 10.5 4.701 21 10.5 21z" fill="#6C27B3"/><path d="M15.369 5.452c-1.255.159-2.563.153-3.88.028-1.838-.141-4.524-.99-5.514.707-1.59 2.717-.806 6.195-.436 9.273l5.527 5.525c5.348-.284 9.634-4.57 9.918-9.917L15.37 5.452z" fill="#501A96"/><path d="M12.93 4.49H8.07a3.585 3.585 0 00-3.58 3.58v4.86a3.585 3.585 0 003.58 3.58h4.86a3.585 3.585 0 003.58-3.58V8.07a3.585 3.585 0 00-3.58-3.58zm2.37 8.44a2.372 2.372 0 01-2.37 2.37H8.07a2.372 2.372 0 01-2.37-2.37V8.07A2.372 2.372 0 018.071 5.7h4.858a2.372 2.372 0 012.372 2.372v4.858z" fill="#fff"/><path d="M10.5 7.391A3.112 3.112 0 007.391 10.5a3.112 3.112 0 003.109 3.109 3.112 3.112 0 003.109-3.109A3.112 3.112 0 0010.5 7.391zm0 5.009a1.9 1.9 0 110-3.8 1.9 1.9 0 010 3.8z" fill="#fff"/><path d="M14.36 7.414a.745.745 0 11-1.49 0 .745.745 0 011.49 0z" fill="#D1D1D1"/><path d="M12.93 4.49h-2.453v1.209h2.452a2.372 2.372 0 012.372 2.372v4.858a2.372 2.372 0 01-2.372 2.372h-2.452v1.209h2.452a3.585 3.585 0 003.581-3.58V8.07a3.585 3.585 0 00-3.58-3.58z" fill="#D1D1D1"/><path d="M10.5 7.391h-.023v1.21h.023a1.9 1.9 0 010 3.799l-.023-.001v1.21h.023a3.112 3.112 0 003.11-3.109 3.112 3.112 0 00-3.11-3.109z" fill="#D1D1D1"/></svg>