<svg width="21" height="21" fill="none" xmlns="http://www.w3.org/2000/svg"><g clip-path="url(#clip0)"><path d="M10.5 21C16.3 21 21 16.299 21 10.5S16.3 0 10.5 0C4.703 0 .002 4.701.002 10.5s4.7 10.5 10.5 10.5z" fill="#55ACEE"/><path d="M16.932 7.546c-.45.2-.934.335-1.442.395.519-.31.916-.802 1.104-1.388A5.024 5.024 0 0115 7.16a2.51 2.51 0 00-4.277 2.29A7.124 7.124 0 015.55 6.828a2.51 2.51 0 00.777 3.35 2.492 2.492 0 01-1.137-.313v.032a2.51 2.51 0 002.013 2.46 2.503 2.503 0 01-1.133.044 2.512 2.512 0 002.344 1.743A5.035 5.035 0 014.7 15.183a7.099 7.099 0 003.847 1.128c4.616 0 7.14-3.825 7.14-7.141 0-.11-.002-.218-.007-.325a5.09 5.09 0 001.253-1.299z" fill="#F1F2F2"/></g><defs><clipPath id="clip0"><path fill="#fff" d="M0 0h21v21H0z"/></clipPath></defs></svg>