<svg width="21" height="21" fill="none" xmlns="http://www.w3.org/2000/svg"><path d="M10.5 21C16.299 21 21 16.299 21 10.5S16.299 0 10.5 0 0 4.701 0 10.5 4.701 21 10.5 21z" fill="#D22215"/><path d="M15.785 6.986c-.315.096-.643.179-.972.261-2.333.495-5.444-.848-6.788 1.344-1.12 1.743-1.474 3.924-2.749 5.482l6.808 6.808a10.507 10.507 0 008.797-8.799l-5.096-5.096z" fill="#A81411"/><path d="M14.013 6.248H6.987a2.496 2.496 0 00-2.496 2.496v3.512a2.496 2.496 0 002.496 2.496h7.026a2.496 2.496 0 002.496-2.496V8.744a2.496 2.496 0 00-2.496-2.496zm-1.688 4.423l-3.286 1.567a.132.132 0 01-.189-.119V8.887c0-.099.104-.163.192-.118l3.286 1.665c.098.05.096.19-.003.237z" fill="#fff"/><path d="M14.013 6.248h-3.584v3.224l1.899.962c.098.05.096.19-.003.237l-1.896.904v3.177h3.584a2.496 2.496 0 002.496-2.496V8.744a2.496 2.496 0 00-2.496-2.496z" fill="#D1D1D1"/></svg>