<svg width="21" height="21" fill="none" xmlns="http://www.w3.org/2000/svg"><path d="M21 10.5C21 16.3 16.3 21 10.5 21S0 16.3 0 10.5 4.7 0 10.5 0 21 4.7 21 10.5z" fill="#4A7AFF"/><path d="M10.96 20.99C16.547 20.749 21 16.145 21 10.5l-.002-.122-7.288-7.289-7.793 8.146 4.33 4.33-1.997 2.714 2.71 2.71z" fill="#0053BF"/><path d="M13.71 3.089v2.378s-2.73-.397-2.73 1.364v1.762h2.466l-.308 2.685H10.98v7H8.25v-7l-2.333-.044V8.593h2.29V6.567s-.152-3.013 2.817-3.566c1.233-.23 2.686.088 2.686.088z" fill="#fff"/><path d="M13.71 5.467V3.089S12.257 2.77 11.024 3a4.16 4.16 0 00-.539.137v15.14h.495v-7h2.157l.309-2.685H10.98V6.83c0-1.76 2.73-1.364 2.73-1.364z" fill="#DCE1EB"/></svg>